<svg xmlns="http://www.w3.org/2000/svg" width="137" height="64" viewBox="0 0 137 64" fill="none"><path fill-rule="evenodd" clip-rule="evenodd" d="m126.159 60.56.048-.048v1.695c-.63.582-.969.776-1.55.776-.678 0-1.163-.243-1.163-1.018 0-1.163 1.26-1.453 1.938-1.453.097 0 .484.048.727.048m-71.025 0c.048.049.097.049.145-.048v1.647c-.533.63-1.114.824-1.599.824-.63 0-1.114-.194-1.114-.97 0-1.162 1.163-1.501 1.89-1.501.096 0 .436 0 .678.048m-6.202.436c0 1.599-1.21 1.793-2.277 1.793-.097 0-.581 0-.823-.049V59.3c.29.049.775 0 .92 0 1.212 0 2.18.243 2.18 1.696M37.644 58.72v3.682c-.34.388-.92.533-1.211.533-1.648 0-2.084-1.163-2.084-2.374 0-1.114.582-2.47 2.035-2.47.388 0 .92.096 1.26.63m-7.849-.581c.388.048 1.163.872 1.163 1.308v.242h-3.585v-.145c.29-1.018.969-1.454 1.841-1.454.097 0 .388 0 .581.049m54.94 2.325c0 .97-.29 2.471-1.792 2.471-1.55 0-1.696-1.55-1.696-2.422s.243-2.471 1.744-2.471c1.502 0 1.745 1.502 1.745 2.422m29.651-3.294v6.686h-1.163V58.14h-.921v-.97zm-94.861 0v6.686h-1.212V58.14h-.92v-.97zM99.61 60.95h-2.567l1.356-3.828zm26.792-3.585c.63.242 1.066 1.453 1.066 1.986v3.15c.048.29.145.629.533.871v.582h-.582c-.387-.097-.968-.436-1.065-.824-.339.581-1.599.872-2.132.872-1.211 0-1.938-1.017-1.938-2.035 0-1.792 1.938-2.422 3.101-2.422.097 0 .533.097.823.145.049-.048.049-.145.049-.242 0-1.066-.824-1.357-1.502-1.357-.485 0-1.211.146-1.599.582-.194-.291-.533-.824-.533-.97 0-.096.436-.338.63-.387.194-.097.484-.194.824-.242.145-.049.533-.049.629-.049.533 0 1.212.146 1.696.34m-5.087.339a21 21 0 0 1-.533.823c-.678-.387-1.017-.484-1.599-.484-1.695 0-2.083 1.453-2.083 2.52 0 1.404.678 2.422 2.132 2.422.484 0 1.211-.291 1.647-.63l.484.969c-.387.339-1.744.678-2.374.678-1.259 0-2.664-.775-3.1-2.568 0-.097-.049-.29-.049-.387v-.92c.194-2.278 1.841-3.102 3.392-3.102.63 0 1.502.291 2.083.679m-9.544-.582-.436 1.163c-.243-.097-.727-.242-.824-.242-.775 0-1.55.872-1.55 1.55v4.264h-1.211v-6.686h1.211c0 .29 0 .63.048.92.388-.823 1.26-1.066 1.841-1.066.146 0 .63.049.921.097m-20.397.097c-.145.388-.29.727-.436 1.066-.242-.097-.727-.242-.824-.242-.775 0-1.55.872-1.55 1.55v4.264h-1.211v-6.686h1.211c0 .29 0 .63.049.92.387-.823 1.26-1.065 1.84-1.065.291 0 .921.193.921.193m-5.378 3.246c0 1.696-.726 3.537-3.003 3.537-2.23 0-3.053-1.841-3.053-3.537 0-1.792 1.018-3.44 3.053-3.44 2.325 0 3.003 1.793 3.003 3.44m-23.933-3.391c.824 0 1.599 1.211 1.599 1.938v4.845h-1.163v-4.41c-.048-1.017-.63-1.404-1.356-1.404-.146 0-.243-.049-.291 0-.29.048-1.308.484-1.308.872v4.942H58.38v-6.686h.824c.096.242.242.533.339.775.484-.678 1.26-.92 1.938-.92.097 0 .387.048.581.048m-5.814 1.26c.049.242.242.63.242.775v3.149c.097.29.049.824.533 1.114v.582h-.533c-.339-.049-.968-.34-1.065-.824-.291.581-1.696.872-2.18.872-1.163 0-1.938-1.017-1.938-2.035 0-1.792 1.938-2.422 3.1-2.422.097 0 .582.097.872.145.049-.048.049-.048.049-.194 0-.969-.678-1.405-1.502-1.405-.581 0-1.066.097-1.599.582-.242-.146-.484-.727-.581-.97.484-.387 1.453-.678 2.131-.678.679 0 2.132.194 2.471 1.309m-24.078 1.55c0 .097 0 .484-.049.727h-4.845v.387c.097 1.357 1.115 1.987 2.132 1.987.533 0 1.017-.146 1.647-.582.194.242.34.533.533.824-.339.436-1.84.775-2.422.775-2.132 0-3.15-1.744-3.15-3.44 0-1.792 1.115-3.537 3.15-3.537 1.792 0 3.003 1.018 3.003 2.859m-17.248-2.665c.145.049.533.436.678.63.049 0 .436.97.436 1.163v4.845h-1.162v-4.41c-.194-1.113-.582-1.404-1.357-1.404-.533 0-1.066.194-1.599.872v4.942h-1.162v-6.686h.823c.097.242.242.533.34.775.484-.678 1.259-.92 1.937-.92.097 0 .727.048 1.066.193m33.526-.29c0 1.26-1.066 1.405-1.89 1.405h-.726v-2.617h.775c.727 0 1.841 0 1.841 1.212m-25.435.242h1.84v.92h-1.84v3.78c.242.871.581 1.114 1.163 1.114.145 0 .678-.146.969-.243.048.34.145.727.193 1.066-.533.097-1.501.194-1.647.194-1.017 0-1.89-.969-1.89-1.89v-4.02h-.774v-.921h.775v-1.405c.387-.146.823-.34 1.21-.436zM3.779 54.698v6.201c.194 1.454.969 1.987 1.938 1.987.824 0 1.599-.388 1.986-1.502v-6.686h1.26v6.831C8.673 63.564 6.977 64 5.717 64c-1.018 0-2.374-.29-2.955-1.599-.097-.29-.194-.775-.194-.872v-6.831zm110.801.63c0 .484-.291.775-.727.775-.485 0-.727-.436-.727-.727q0-.726.727-.726c.436 0 .727.242.727.678m-94.861 0c0 .484-.437.775-.776.775-.484 0-.727-.436-.727-.727 0-.484.388-.726.727-.726.436 0 .775.242.775.678m30.037 1.502c0 .678-.339 1.356-1.308 1.84l-.048.098c1.405.29 1.938 1.356 1.938 2.422 0 .097-.097.533-.146.775-.145 1.066-1.84 1.89-2.664 1.89h-3.004V54.6H46.8c1.308 0 2.955.388 2.955 2.229m48.836-2.277 3.488 9.302h-1.405a31 31 0 0 0-.678-1.938h-3.294a16 16 0 0 0-.727 1.938H94.57c1.211-3.101 2.47-6.202 3.682-9.302zm8.285.048c-.049.097-.34.872-.388.872-.145 0-.484-.097-.63-.097-.872 0-1.259.775-1.259 1.454 0 .097.048.193.048.339h1.357v.969h-1.357v5.717h-1.163v-5.717h-.969v-.97h.969c-.048-1.598.775-2.76 2.277-2.76.097 0 .727.096 1.115.193m-27.277 0-.29.872a4 4 0 0 0-.679-.097c-.533 0-1.26.533-1.26 1.114v.679h1.406v.969h-1.405v5.717h-1.163v-5.717h-.97v-.97h.97c0-1.646.823-2.76 2.277-2.76.145 0 .775.096 1.114.193m-13.032-.194v5.766l2.519-3.004h1.405l-2.083 2.52 2.567 4.166h-1.308l-2.083-3.343c-.29.339-.678.726-1.017 1.066v2.277h-1.211v-9.448zm-27.713 0v9.448h-1.162c0-.146 0-.291-.049-.436-.581.436-1.163.533-1.744.533-2.132 0-2.858-1.793-2.858-3.295s1.017-3.633 3.1-3.633c.34 0 1.163.145 1.55.435v-3.052zm6.056-22.867c2.859.63 4.118 2.228 4.118 4.457 0 .097-.048 1.017-.193 1.502-.146.484-.412.912-.872 1.502-1.432 1.833-4.167 3.294-5.862 3.294h-4.845c.775-3.537 1.453-7.17 2.228-10.658 0-.097.049-.146.146-.194l3.682-.097c.096 0 1.066.097 1.598.194m32.121 4.07h-8.769l6.395-9.787zM49.854 22.867c0 .097-.194 1.017-.242 1.502-.097 1.017-1.017 2.519-2.374 3.342-.485.291-2.47 1.454-2.762 1.454h-4.312c.146-.775.291-1.599.437-2.374.096-.485.242-1.018.29-1.502.097-.485.242-1.017.29-1.502.098-.484.243-1.017.292-1.502.096-.484.137-.75.242-1.502.105-.864.04-.896.533-.872l3.633-.097c1.55 0 3.973.824 3.973 3.053m28.778-6.88 7.267 29.892h-6.54l-1.163-5.862H65.55l-3.876 5.862h-5.426L76.5 15.988zm-28.923 0c4.36.485 6.395 2.52 6.395 5.91 0 3.634-2.52 6.347-6.928 7.8.048.05.145.05.194.05 3.246.484 5.571 2.373 5.571 5.329 0 4.699-2.907 9.06-9.205 10.464-.29.049-2.229.436-2.907.436H30.474l6.25-29.99zm-39.389 0c-.484 2.568-1.017 4.99-1.501 7.413a186 186 0 0 0-1.115 5.523c-.484 2.713-1.26 5.329-1.26 8.042 0 2.955.97 5.62 4.797 5.62 3.682 0 7.316-2.422 8.478-7.364 1.502-6.395 2.762-12.839 4.119-19.234h5.523v.145c-1.55 7.025-3.004 14.05-4.603 21.027-.848 2.204-1.223 2.555-1.89 3.44-2.906 4.02-6.782 5.329-10.125 5.716-.388.049-1.066.146-1.211.146H8.575a19 19 0 0 1-1.744-.243 20 20 0 0 1-1.647-.387C1.454 44.912 0 41.326 0 38.662v-1.163c.048-.34.048-.727.097-1.114 1.405-6.783 2.81-13.614 4.215-20.397zm100.433 29.699c-.775.096-2.277.29-2.422.29H96.266l8.139-38.225a3039 3039 0 0 1 12.742 25.193c.727 1.84 1.405 3.827 1.405 5.716 0 4.215-2.955 6.25-7.8 7.026m17.345-7.461a2048 2048 0 0 1-7.365-14.438c-1.356-2.665-2.713-5.426-4.069-8.042-.436-.92-.921-1.744-1.308-2.617-.436-.968-1.405-3.924-1.405-5.329V6.783c.048-.485.097-1.066.242-1.502C115.645.678 121.023.242 124.221 0h12.063z" fill="#d51709"/></svg>